<?xml version="1.0" encoding="UTF-8"?><svg id="Calque_2" xmlns="http://www.w3.org/2000/svg" viewBox="0 0 220.12 57.64"><defs><style>.cls-1{font-family:RethinkSansItalic-BoldItalic, 'Rethink Sans';font-size:50.92px;font-style:italic;font-variation-settings:'wght' 700;font-weight:700;letter-spacing:-.08em;}.cls-1,.cls-2{fill:#00030b;}.cls-2,.cls-3{stroke-width:0px;}.cls-3{fill:#3c6df9;}</style></defs><g id="Calque_1-2"><path class="cls-3" d="m55.49,56.5c-.47,0-.87-.07-1.22-.22-.35-.15-.62-.36-.81-.63-.19-.27-.29-.59-.29-.96,0-.05,0-.11,0-.19,0-.07.01-.14.02-.2h1.34s0,.07,0,.1v.09c0,.28.1.51.3.69.2.17.47.26.81.26.38,0,.68-.1.9-.29.22-.19.33-.45.33-.76,0-.16-.04-.3-.11-.41s-.18-.2-.32-.29c-.14-.08-.32-.16-.52-.24s-.45-.16-.71-.26c-.43-.16-.77-.38-1-.65-.23-.28-.35-.6-.35-.98,0-.44.11-.83.34-1.16.23-.33.54-.59.94-.77.4-.18.86-.28,1.38-.28.62,0,1.13.15,1.51.45s.57.71.57,1.23c0,.05,0,.1,0,.15,0,.05,0,.11-.01.16h-1.35s0-.06,0-.09v-.08c0-.2-.08-.38-.24-.53s-.39-.23-.69-.23c-.33,0-.6.09-.79.26-.19.17-.29.39-.29.66,0,.2.07.36.2.48.13.12.31.23.53.32.22.09.47.18.74.28.45.16.82.38,1.11.68s.44.67.44,1.12-.12.86-.35,1.2c-.24.34-.56.61-.97.79-.41.19-.89.28-1.42.28Z"/><path class="cls-3" d="m59.12,56.38l1.22-6.9h1.26l-1.22,6.9h-1.26Z"/><path class="cls-3" d="m63.43,56.38l1.02-5.83h-2.01l.2-1.07h5.29l-.2,1.07h-2.02l-1.03,5.83h-1.26Z"/><path class="cls-3" d="m67.73,56.38l1.22-6.9h4.33l-.2,1.07h-3.07l-.29,1.65h2.61l-.19,1.07h-2.61l-.35,2.03h3.07l-.2,1.07h-4.33Z"/><path class="cls-3" d="m77.9,56.38l-1.17-6.9h1.29l.86,5.71,1.14-2.31-.59-3.4h1.27l.35,2.42,1.18-2.42h1.28l-1.8,3.4.33,2.31,2.87-5.71h1.29l-3.62,6.9h-1.5l-.39-2.5-1.29,2.5h-1.5Z"/><path class="cls-3" d="m85.97,56.38l1.22-6.9h4.33l-.2,1.07h-3.07l-.29,1.65h2.61l-.19,1.07h-2.61l-.35,2.03h3.07l-.2,1.07h-4.33Z"/><path class="cls-3" d="m91.64,56.38l1.22-6.9h2.61c.64,0,1.13.14,1.45.43.32.29.48.65.48,1.07,0,.22-.05.45-.14.67-.09.22-.23.42-.42.6-.19.18-.44.32-.74.43.2.07.38.19.54.34.15.16.28.34.37.55.09.21.14.43.14.66,0,.41-.11.77-.34,1.09-.23.32-.54.58-.94.76s-.85.28-1.37.28h-2.87Zm1.46-1.07h1.49c.44,0,.77-.1.98-.31.21-.2.32-.48.32-.84,0-.24-.08-.44-.23-.61-.15-.16-.4-.24-.73-.24h-1.47l-.34,1.99Zm.53-3.07h1.24c.32,0,.56-.04.73-.13.17-.09.3-.21.36-.35s.1-.3.1-.46c0-.21-.07-.39-.21-.53-.14-.14-.38-.21-.71-.21h-1.22l-.3,1.69Z"/><path class="cls-3" d="m101.05,54.05l.18-1.05h3.34l-.19,1.05h-3.33Z"/><path class="cls-3" d="m108.01,56.38l1.22-6.9h2.4c.43,0,.79.07,1.1.22.31.15.54.34.71.6.16.25.25.55.25.89,0,.32-.06.61-.19.89-.13.28-.33.52-.59.73s-.61.36-1.04.46l1.37,3.12h-1.49l-1.18-2.91h-.77l-.51,2.91h-1.26Zm1.97-3.98h1.1c.45,0,.78-.09.99-.26.2-.17.31-.43.31-.77,0-.14-.03-.27-.09-.39s-.16-.22-.3-.3c-.14-.08-.34-.12-.59-.12h-1.1l-.32,1.84Z"/><path class="cls-3" d="m114.19,56.38l1.22-6.9h4.33l-.2,1.07h-3.07l-.29,1.65h2.61l-.19,1.07h-2.61l-.35,2.03h3.07l-.2,1.07h-4.33Zm2.3-7.29l.16-.89,2.44-1.2-.19,1.03-2.42,1.06Z"/><path class="cls-3" d="m119.86,56.38l1.22-6.9h4.35l-.2,1.07h-3.09l-.3,1.73h2.7l-.2,1.07h-2.7l-.53,3.03h-1.26Z"/><path class="cls-3" d="m125.33,56.38l1.22-6.9h4.33l-.2,1.07h-3.07l-.29,1.65h2.61l-.19,1.07h-2.61l-.35,2.03h3.07l-.2,1.07h-4.33Zm2.3-7.29l.16-.89,2.44-1.2-.19,1.03-2.42,1.06Z"/><path class="cls-3" d="m131,56.38l1.22-6.9h2.4c.43,0,.79.07,1.1.22.31.15.54.34.71.6.16.25.25.55.25.89,0,.32-.06.61-.19.89-.13.28-.33.52-.59.73s-.61.36-1.04.46l1.37,3.12h-1.49l-1.18-2.91h-.77l-.51,2.91h-1.26Zm1.97-3.98h1.1c.45,0,.78-.09.99-.26.2-.17.31-.43.31-.77,0-.14-.03-.27-.09-.39s-.16-.22-.3-.3c-.14-.08-.34-.12-.59-.12h-1.1l-.32,1.84Z"/><path class="cls-3" d="m137.18,56.38l1.22-6.9h4.33l-.2,1.07h-3.07l-.29,1.65h2.61l-.19,1.07h-2.61l-.35,2.03h3.07l-.2,1.07h-4.33Z"/><path class="cls-3" d="m142.85,56.38l1.22-6.9h1.26l2.39,4.82.86-4.82h1.26l-1.22,6.9h-1.26l-2.4-4.81-.85,4.81h-1.26Z"/><path class="cls-3" d="m153.18,56.5c-.51,0-.94-.08-1.3-.24s-.65-.37-.87-.64c-.22-.27-.38-.56-.48-.89-.1-.33-.15-.66-.15-1.01,0-.6.1-1.17.3-1.7.2-.53.48-.99.84-1.4.36-.4.79-.71,1.28-.94.49-.22,1.03-.33,1.62-.33.83,0,1.47.21,1.93.62s.69.99.7,1.73h-1.4c-.01-.38-.14-.68-.38-.89-.24-.21-.59-.32-1.05-.32s-.81.09-1.13.28c-.32.19-.59.43-.79.74-.21.31-.36.64-.46,1-.1.36-.15.72-.15,1.06,0,.56.15.99.45,1.31.3.31.72.47,1.26.47.45,0,.83-.1,1.14-.3s.53-.48.69-.84h1.4c-.26.72-.69,1.27-1.3,1.67-.6.4-1.31.6-2.13.6Z"/><path class="cls-3" d="m157.44,56.38l1.22-6.9h4.33l-.2,1.07h-3.07l-.29,1.65h2.61l-.19,1.07h-2.61l-.36,2.03h3.07l-.2,1.07h-4.33Z"/><path class="cls-3" d="m163.11,56.38l1.22-6.9h1.5l1.17,4.46,2.72-4.46h1.5l-1.22,6.9h-1.26l.83-4.65-2.36,3.78h-1l-1.02-3.78-.83,4.65h-1.26Z"/><path class="cls-3" d="m171.44,56.38l1.22-6.9h4.33l-.2,1.07h-3.07l-.29,1.65h2.61l-.19,1.07h-2.61l-.36,2.03h3.07l-.2,1.07h-4.33Z"/><path class="cls-3" d="m177.11,56.38l1.22-6.9h1.26l2.39,4.82.86-4.82h1.26l-1.22,6.9h-1.26l-2.4-4.81-.85,4.81h-1.26Z"/><path class="cls-3" d="m185.92,56.38l1.03-5.83h-2.01l.2-1.07h5.29l-.2,1.07h-2.02l-1.03,5.83h-1.26Z"/><path class="cls-3" d="m193.26,54.05l.18-1.05h3.34l-.19,1.05h-3.33Z"/><path class="cls-3" d="m200.22,56.38l1.22-6.9h2.4c.43,0,.79.07,1.1.22.31.15.54.34.71.6.16.25.25.55.25.89,0,.32-.06.61-.19.89s-.33.52-.59.73c-.27.21-.61.36-1.04.46l1.37,3.12h-1.49l-1.18-2.91h-.77l-.51,2.91h-1.26Zm1.97-3.98h1.1c.45,0,.78-.09.99-.26.2-.17.31-.43.31-.77,0-.14-.03-.27-.09-.39-.06-.12-.16-.22-.3-.3-.14-.08-.34-.12-.59-.12h-1.1l-.32,1.84Z"/><path class="cls-3" d="m208.82,56.5c-.47,0-.87-.07-1.22-.22-.35-.15-.62-.36-.81-.63-.19-.27-.29-.59-.29-.96,0-.05,0-.11,0-.19,0-.07.01-.14.02-.2h1.34s-.01.07-.01.1v.09c0,.28.1.51.3.69.2.17.47.26.81.26.38,0,.68-.1.9-.29.22-.19.33-.45.33-.76,0-.16-.04-.3-.11-.41-.07-.11-.18-.2-.32-.29-.14-.08-.32-.16-.52-.24s-.45-.16-.71-.26c-.43-.16-.77-.38-1-.65-.23-.28-.34-.6-.34-.98,0-.44.11-.83.34-1.16.23-.33.54-.59.94-.77.4-.18.86-.28,1.38-.28.62,0,1.13.15,1.51.45s.57.71.57,1.23c0,.05,0,.1,0,.15,0,.05,0,.11-.02.16h-1.35s0-.06,0-.09v-.08c0-.2-.08-.38-.24-.53-.16-.15-.39-.23-.69-.23-.34,0-.6.09-.79.26-.19.17-.29.39-.29.66,0,.2.07.36.2.48.13.12.31.23.53.32.22.09.47.18.74.28.45.16.82.38,1.11.68.29.29.44.67.44,1.12s-.12.86-.35,1.2c-.24.34-.56.61-.97.79-.41.19-.89.28-1.42.28Z"/><path class="cls-3" d="m10.9,57.61v-23.71c.7.44,1.17.69,1.58,1,4.21,3.29,8.68,6.3,12.54,9.96,3.41,3.23,7.16,3.02,11.95,2.7-7.08-5.35-13.65-10.32-20.5-15.5,6.54-4.86,12.87-9.57,19.19-14.27-3.46-.22-6.81-1.55-10.01,1.17-4.6,3.9-9.55,7.39-14.69,11.31V7.21c.81-.04,1.67-.11,2.52-.11,6.23,0,12.46-.01,18.7,0,6.17,0,11.57,4.01,13.05,9.65,1.42,5.41-1.03,10.16-6.94,13.45-.2.11-.38.27-.77.56.64.29,1.05.51,1.47.67,5.58,2.11,9.03,6.3,9.14,11.1.14,6.03-3.18,11.3-8.75,13.58-1.71.7-3.56,1.41-5.35,1.45-7.65.16-15.31.07-23.12.07Z"/><rect class="cls-2" y="7.09" width="7.13" height="50.55"/><text class="cls-1" transform="translate(54.07 43.28)"><tspan x="0" y="0">KBCOM</tspan></text></g></svg>