<svg width="400" height="400" viewBox="0 0 400 400" fill="none" xmlns="http://www.w3.org/2000/svg">
  <!-- Shopping bag -->
  <path d="M100 140 L300 140 L280 320 C280 330 272 340 260 340 L140 340 C128 340 120 330 120 320 Z" fill="white" stroke="#8b5cf6" stroke-width="3"/>

  <!-- Handles -->
  <path d="M140 140 C140 100 160 80 200 80 C240 80 260 100 260 140" stroke="#8b5cf6" stroke-width="3" fill="none"/>

  <!-- Products inside -->
  <rect x="140" y="180" width="120" height="100" rx="8" fill="#8b5cf6" fill-opacity="0.15"/>
  <rect x="150" y="190" width="50" height="70" rx="6" fill="#ec4899" fill-opacity="0.2"/>
  <rect x="210" y="190" width="40" height="50" rx="6" fill="#8b5cf6" fill-opacity="0.25"/>

  <!-- Price tags -->
  <circle cx="320" cy="160" r="35" fill="#ec4899" fill-opacity="0.15"/>
  <text x="320" y="168" text-anchor="middle" font-size="24" font-weight="bold" fill="#8b5cf6">€</text>

  <!-- Cart icon decoration -->
  <circle cx="100" cy="280" r="25" fill="#8b5cf6" fill-opacity="0.1"/>
  <path d="M90 275 L95 270 L100 275" stroke="#8b5cf6" stroke-width="2" fill="none"/>
</svg>
